<svg width="33" height="28" viewBox="0 0 33 28" fill="none" xmlns="http://www.w3.org/2000/svg">
<path fill-rule="evenodd" clip-rule="evenodd" d="M16.5858 24.5858C15.8047 25.3668 15.8047 26.6332 16.5858 27.4142C17.3668 28.1953 18.6332 28.1953 19.4142 27.4142L31.4142 15.4142L32.8284 14L31.4153 12.5868L31.4142 12.5858L31.413 12.5846L19.4142 0.585787C18.6332 -0.195262 17.3668 -0.195263 16.5858 0.585787C15.8047 1.36683 15.8047 2.63317 16.5858 3.41421L25.1716 12L2 12C0.89543 12 0 12.8954 0 14C0 15.1046 0.895429 16 2 16L25.1716 16L16.5858 24.5858Z" fill="white"/>
</svg>
