<svg width="38" height="30" viewBox="0 0 38 30" fill="none" xmlns="http://www.w3.org/2000/svg">
<path fill-rule="evenodd" clip-rule="evenodd" d="M0 5C0 2.23858 2.23858 0 5 0H33C35.7614 0 38 2.23858 38 5V25C38 27.7614 35.7614 30 33 30H5C2.23858 30 0 27.7614 0 25V5ZM5 2C3.34315 2 2 3.34315 2 5V8H36V5C36 3.34315 34.6569 2 33 2H5ZM2 25V10H36V25C36 26.6569 34.6569 28 33 28H5C3.34315 28 2 26.6569 2 25ZM11 18C10.4477 18 10 18.4477 10 19C10 19.5523 10.4477 20 11 20H19C19.5523 20 20 19.5523 20 19C20 18.4477 19.5523 18 19 18H11Z" fill="#64748B"/>
</svg>
