<svg width="28" height="36" viewBox="0 0 28 36" fill="none" xmlns="http://www.w3.org/2000/svg">
<path fill-rule="evenodd" clip-rule="evenodd" d="M12 34C12 35.1046 12.8954 36 14 36C15.1046 36 16 35.1046 16 34V2C16 0.895431 15.1046 0 14 0C12.8954 0 12 0.895432 12 2L12 34ZM26 36C24.8954 36 24 35.1046 24 34L24 10C24 8.89543 24.8954 8 26 8C27.1046 8 28 8.89543 28 10L28 34C28 35.1046 27.1046 36 26 36ZM2 36C0.895431 36 0 35.1046 0 34V22C0 20.8954 0.895431 20 2 20C3.10457 20 4 20.8954 4 22L4 34C4 35.1046 3.10457 36 2 36Z" fill="black"/>
</svg>
