<svg width="40" height="40" viewBox="0 0 40 40" fill="none" xmlns="http://www.w3.org/2000/svg">
<path fill-rule="evenodd" clip-rule="evenodd" d="M14 2C14 0.89543 13.1046 0 12 0C10.8954 0 10 0.89543 10 2V4H6C2.68629 4 0 6.68629 0 10V34C0 37.3137 2.68629 40 6 40H34C37.3137 40 40 37.3137 40 34V10C40 6.68629 37.3137 4 34 4H30V2C30 0.89543 29.1046 0 28 0C26.8954 0 26 0.89543 26 2V4H14V2ZM26 10V8H14V10C14 11.1046 13.1046 12 12 12C10.8954 12 10 11.1046 10 10V8H6C4.89543 8 4 8.89543 4 10V34C4 35.1046 4.89543 36 6 36H34C35.1046 36 36 35.1046 36 34V10C36 8.89543 35.1046 8 34 8H30V10C30 11.1046 29.1046 12 28 12C26.8954 12 26 11.1046 26 10ZM10 16C8.89543 16 8 16.8954 8 18C8 19.1046 8.89543 20 10 20H30C31.1046 20 32 19.1046 32 18C32 16.8954 31.1046 16 30 16H10Z" fill="black"/>
</svg>
